HIERARCHY
ROOT Hips
{
	OFFSET 0.000000 0.000000 0.000000
	CHANNELS 6 Xposition Yposition Zposition Zrotation Yrotation Xrotation 
	JOINT LeftUpLeg_virtual
	{
		OFFSET 0.000000 0.000000 0.000000
		CHANNELS 3 Zrotation Yrotation Xrotation
		JOINT LeftUpLeg
		{
			OFFSET 8.479694 -4.795517 -0.379053
			CHANNELS 3 Zrotation Yrotation Xrotation
			JOINT LeftLeg
			{
				OFFSET 0.485052 -32.551468 0.112863
				CHANNELS 3 Zrotation Yrotation Xrotation
				JOINT LeftFoot
				{
					OFFSET 0.438033 -32.635670 -3.012641
					CHANNELS 3 Zrotation Yrotation Xrotation
					JOINT LeftToeBase
					{
						OFFSET 0.970169 -13.225353 11.864223
						CHANNELS 3 Zrotation Yrotation Xrotation
						End Site
						{
							OFFSET 0.000000 0.000000 0.000000
						}
					}
				}
			}
		}
	}
	JOINT RightUpLeg_virtual
	{
		OFFSET 0.000000 0.000000 0.000000
		CHANNELS 3 Zrotation Yrotation Xrotation
		JOINT RightUpLeg
		{
			OFFSET -8.479694 -4.795517 -0.379053
			CHANNELS 3 Zrotation Yrotation Xrotation
			JOINT RightLeg
			{
				OFFSET -0.484100 -32.551483 0.112903
				CHANNELS 3 Zrotation Yrotation Xrotation
				JOINT RightFoot
				{
					OFFSET -0.438985 -32.635651 -3.012681
					CHANNELS 3 Zrotation Yrotation Xrotation
					JOINT RightToeBase
					{
						OFFSET -0.970169 -13.225354 11.864223
						CHANNELS 3 Zrotation Yrotation Xrotation
						End Site
						{
							OFFSET 0.000000 0.000000 0.000000
						}
					}
				}
			}
		}
	}
	JOINT Spine_virtual
	{
		OFFSET 0.000000 0.000000 0.000000
		CHANNELS 3 Zrotation Yrotation Xrotation
		JOINT Spine
		{
			OFFSET 0.000000 7.722015 1.166203
			CHANNELS 3 Zrotation Yrotation Xrotation
			JOINT Spine1
			{
				OFFSET 0.000000 12.024086 0.248766
				CHANNELS 3 Zrotation Yrotation Xrotation
				JOINT Spine2
				{
					OFFSET -0.000000 11.503036 -0.491240
					CHANNELS 3 Zrotation Yrotation Xrotation
					JOINT Neck_virtual
					{
						OFFSET 0.000000 0.000000 0.000000
						CHANNELS 3 Zrotation Yrotation Xrotation
						JOINT Neck
						{
							OFFSET 0.000000 18.430687 -3.123054
							CHANNELS 3 Zrotation Yrotation Xrotation
							JOINT Head
							{
								OFFSET -0.000000 9.051071 1.034021
								CHANNELS 3 Zrotation Yrotation Xrotation
								End Site
								{
									OFFSET 0.000000 0.000000 0.000000
								}
							}
						}
					}
					JOINT LeftShoulder_virtual
					{
						OFFSET 0.000000 0.000000 0.000000
						CHANNELS 3 Zrotation Yrotation Xrotation
						JOINT LeftShoulder
						{
							OFFSET 6.197824 13.665230 -4.064723
							CHANNELS 3 Zrotation Yrotation Xrotation
							JOINT LeftArm
							{
								OFFSET 7.778132 -0.187073 -1.709282
								CHANNELS 3 Zrotation Yrotation Xrotation
								JOINT LeftForeArm
								{
									OFFSET 21.954697 0.000000 -2.041093
									CHANNELS 3 Zrotation Yrotation Xrotation
									JOINT LeftHand
									{
										OFFSET 22.992908 0.000000 -0.870901
										CHANNELS 3 Zrotation Yrotation Xrotation
										End Site
										{
											OFFSET 0.000000 0.000000 0.000000
										}
									}
								}
							}
						}
					}
					JOINT RightShoulder_virtual
					{
						OFFSET 0.000000 0.000000 0.000000
						CHANNELS 3 Zrotation Yrotation Xrotation
						JOINT RightShoulder
						{
							OFFSET -6.197824 13.665230 -4.064723
							CHANNELS 3 Zrotation Yrotation Xrotation
							JOINT RightArm
							{
								OFFSET -7.778132 -0.187073 -1.709282
								CHANNELS 3 Zrotation Yrotation Xrotation
								JOINT RightForeArm
								{
									OFFSET -21.954697 0.000000 -2.041093
									CHANNELS 3 Zrotation Yrotation Xrotation
									JOINT RightHand
									{
										OFFSET -22.992908 0.000000 -0.870901
										CHANNELS 3 Zrotation Yrotation Xrotation
										End Site
										{
											OFFSET 0.000000 0.000000 0.000000
										}
									}
								}
							}
						}
					}
				}
			}
		}
	}
}
MOTION
Frames: 7
Frame Time: 0.033333
59.008865 81.567810 107.442657 179.818254 18.452574 179.793460 -4.583693 1.976606 7.503660 6.850164 -2.577423 -23.177759 9.880034 7.845079 28.988825 -3.279298 -2.182452 -3.536287 0.000000 0.000000 0.000000 0.466542 0.978281 6.813578 2.605647 0.741845 -18.627391 0.223709 4.594369 25.110747 5.134982 9.246156 -13.003560 0.000000 0.000000 0.000000 1.779012 3.921776 -2.848420 1.217337 -2.833336 -0.804548 -1.456191 -0.912402 9.285325 0.046937 0.088013 -0.074973 -1.929810 0.456427 10.291966 -0.370545 -2.075150 -18.490376 0.000000 0.000000 0.000000 -0.435245 1.184596 7.823758 -8.693498 -5.566921 4.378218 -61.334115 -5.029714 13.672958 6.133904 -26.350142 10.604353 0.000000 0.000000 0.000000 -4.813217 2.863222 7.127979 27.049532 -1.266917 3.429060 56.212563 1.988119 24.665329 -7.792294 29.257149 -7.774951 0.000000 0.000000 0.000000 
59.406483 81.583191 107.427315 179.752096 18.053209 179.762765 -4.315830 2.297960 7.925081 7.079789 -2.500341 -23.659434 9.721389 7.791878 29.088072 -3.500351 -2.426962 -3.472414 0.000000 0.000000 0.000000 0.908318 1.063601 7.056658 2.896848 0.509772 -19.097894 0.206194 4.152962 24.758369 4.962162 9.124638 -12.907354 0.000000 0.000000 0.000000 1.744047 3.994334 -2.527863 1.175516 -2.776845 -0.851013 -1.483999 -0.854814 9.278606 0.046931 0.134210 -0.048169 -1.964657 0.447063 10.282684 -0.328498 -2.175075 -18.522848 0.000000 0.000000 0.000000 -0.448541 1.238816 7.957108 -8.511919 -5.527448 4.349573 -61.004750 -4.983714 13.455110 5.998589 -26.355168 10.695851 0.000000 0.000000 0.000000 -4.835076 2.807501 7.107347 27.074930 -1.267960 3.436436 56.173832 2.281956 24.748193 -7.734412 29.644578 -7.636395 0.000000 0.000000 0.000000 
59.851479 81.576515 107.416687 179.786971 17.087585 179.874316 -4.109212 1.784231 8.571515 7.484997 -2.686944 -24.637274 9.557921 7.865314 29.456861 -3.726350 -2.640110 -3.102623 0.000000 0.000000 0.000000 1.282868 0.813947 7.600670 2.911826 0.956680 -19.582617 0.038040 3.969072 24.722495 4.399124 8.663706 -12.820100 0.000000 0.000000 0.000000 1.994520 3.677605 -2.171677 1.089641 -2.799556 -0.889372 -1.543973 -0.923842 9.270069 0.010017 0.039275 -0.000724 -1.986667 0.547807 10.265318 -0.269677 -2.261756 -18.600156 0.000000 0.000000 0.000000 -0.426527 1.220748 7.881234 -8.258435 -5.374195 4.366889 -60.768289 -4.619980 13.284388 6.029421 -26.448051 10.827600 0.000000 0.000000 0.000000 -4.858846 2.861223 7.160319 27.002767 -1.221501 3.460274 56.157856 2.763829 24.930083 -7.681149 29.881091 -7.754556 0.000000 0.000000 0.000000 
60.214039 81.533981 107.413605 179.866734 16.270445 179.911855 -3.855016 1.113459 9.211295 7.822729 -3.448167 -25.936349 9.591123 7.391513 30.654056 -3.746588 -2.588051 -2.657337 0.000000 0.000000 0.000000 1.697598 0.279873 7.971695 2.889272 1.624623 -20.045815 -0.172583 3.865147 24.879270 3.674825 8.117133 -13.029487 0.000000 0.000000 0.000000 2.459206 3.158092 -1.776578 0.980151 -2.708459 -0.772611 -1.576528 -0.910895 9.266359 0.012446 0.029148 -0.007346 -2.060954 0.557560 10.313780 -0.201463 -2.395325 -18.705585 0.000000 0.000000 0.000000 -0.498681 1.230814 7.927235 -8.086996 -5.363306 4.354096 -60.534081 -4.311456 13.236228 5.941623 -26.579792 11.046964 0.000000 0.000000 0.000000 -4.919921 2.880218 7.173610 26.976647 -1.233860 3.405851 55.958784 3.347439 25.154091 -7.446440 30.002180 -7.585361 0.000000 0.000000 0.000000 
60.444324 81.459740 107.396767 -179.988052 15.450918 179.998571 -3.371767 0.001265 9.573625 7.692326 -4.296862 -27.466924 9.987736 6.845080 32.989168 -3.501355 -2.332033 -2.695164 0.000000 0.000000 0.000000 2.130781 -0.364843 8.085277 2.824747 2.726004 -20.242896 -0.328886 4.000364 25.284165 2.807861 7.518972 -13.515179 0.000000 0.000000 0.000000 3.092140 2.538312 -1.498094 0.942166 -2.485399 -0.519824 -1.584266 -0.808237 9.307952 -0.002710 -0.056273 0.007180 -2.103766 0.551165 10.373160 -0.129952 -2.516517 -18.892515 0.000000 0.000000 0.000000 -0.556886 1.204318 8.024998 -8.056706 -5.442912 4.404648 -60.459066 -3.949698 13.396403 5.863264 -26.820973 11.291644 0.000000 0.000000 0.000000 -4.930991 2.846224 7.186160 26.906279 -1.334381 3.355960 55.612076 3.913755 25.391279 -7.219944 29.844010 -7.482948 0.000000 0.000000 0.000000 
60.557770 81.363396 107.289482 -179.888646 14.633429 -179.964939 -2.814986 -0.627135 9.646763 7.442100 -6.357011 -29.546609 10.423796 6.386675 36.181165 -3.112379 -1.899277 -2.389996 0.000000 0.000000 0.000000 2.337704 -0.927490 7.960590 2.874826 3.439631 -20.251963 -0.676023 3.826953 25.810366 2.228980 7.361990 -14.140623 0.000000 0.000000 0.000000 3.724167 1.769089 -1.295540 0.995420 -2.354596 -0.149863 -1.630856 -0.857939 9.354490 0.040461 0.024525 0.008354 -2.250671 0.354733 10.416846 -0.092583 -2.640893 -19.149718 0.000000 0.000000 0.000000 -0.648345 1.275167 8.076314 -8.042545 -5.355976 4.357707 -60.577699 -3.460622 13.759354 5.785332 -27.182401 11.609705 0.000000 0.000000 0.000000 -5.014556 2.891893 7.252515 26.679849 -1.285133 3.296117 55.243690 4.586030 25.440004 -6.819994 29.460112 -7.261271 0.000000 0.000000 0.000000 
60.614944 81.304977 107.118065 -179.865040 13.648053 -179.883537 -2.392479 -1.297716 9.432492 6.866640 -8.252468 -32.045960 10.741673 6.110900 39.597667 -2.966838 -1.688209 -2.381045 0.000000 0.000000 0.000000 2.599029 -1.594384 7.682633 2.706476 4.084527 -20.148614 -0.908643 3.636781 26.360963 1.629075 7.139039 -14.719024 0.000000 0.000000 0.000000 4.264450 1.224177 -1.141927 1.152900 -2.157584 0.205026 -1.661189 -0.875728 9.407572 -0.029231 -0.010575 -0.023055 -2.192818 0.630548 10.506503 -0.078794 -2.725406 -19.429991 0.000000 0.000000 0.000000 -0.637871 1.228815 8.206424 -7.999703 -5.351819 4.290905 -60.921032 -2.871672 14.334030 5.749755 -27.719011 11.880058 0.000000 0.000000 0.000000 -4.964470 2.892443 7.264388 26.463348 -1.321785 3.291035 54.909878 5.211401 25.311305 -6.483397 28.898080 -7.118947 0.000000 0.000000 0.000000 
